<svg width="16" height="16" viewBox="0 0 16 16" fill="none" xmlns="http://www.w3.org/2000/svg">
<path d="M3.68675 13.3034C3.60865 13.3815 3.48201 13.3815 3.40391 13.3034L2.6968 12.5963C2.6187 12.5182 2.6187 12.3915 2.6968 12.3134L7.01012 8.00009L2.69676 3.68673C2.61866 3.60863 2.61866 3.48199 2.69676 3.40389L3.40387 2.69678C3.48197 2.61868 3.60861 2.61868 3.68671 2.69678L8.00007 7.01014L12.3135 2.69676C12.3916 2.61866 12.5182 2.61866 12.5963 2.69676L13.3034 3.40387C13.3815 3.48197 13.3815 3.60861 13.3034 3.68671L8.99002 8.00009L13.3034 12.3134C13.3815 12.3915 13.3815 12.5182 13.3034 12.5963L12.5963 13.3034C12.5182 13.3815 12.3915 13.3815 12.3134 13.3034L8.00007 8.99004L3.68675 13.3034Z" fill="#070A26"/>
</svg>
