<svg width="117" height="24" viewBox="0 0 117 24" fill="none" xmlns="http://www.w3.org/2000/svg">
<path fill-rule="evenodd" clip-rule="evenodd" d="M54.2192 0C53.1469 0 52.2799 0.867071 52.2799 1.93933V17.3745L42.9605 8.05516C42.5799 7.67457 42.0769 7.48594 41.5771 7.48925C41.0774 7.48594 40.5777 7.67457 40.1938 8.05516L30.8744 17.3745V1.93933C30.8744 0.867071 30.0074 0 28.9351 0C27.8662 0 26.9958 0.867071 26.9958 1.93933V22.0574C26.9958 22.1798 27.009 22.299 27.0289 22.4148C27.0289 22.4181 27.0297 22.4214 27.0305 22.4247L27.0305 22.4247L27.0305 22.4247C27.0314 22.428 27.0322 22.4313 27.0322 22.4346C27.0554 22.5505 27.0885 22.663 27.1315 22.7722C27.1348 22.7788 27.1381 22.7888 27.1414 22.7987C27.1877 22.9079 27.244 23.0138 27.3069 23.1131C27.3102 23.1197 27.3135 23.1263 27.3201 23.1329C27.4624 23.348 27.6477 23.5334 27.8629 23.6757C27.8662 23.6773 27.8695 23.6798 27.8728 23.6823C27.8761 23.6848 27.8794 23.6873 27.8827 23.6889C27.982 23.7518 28.0879 23.8081 28.1971 23.8544C28.2004 23.856 28.2046 23.8577 28.2087 23.8593C28.2128 23.861 28.217 23.8627 28.2203 23.8643C28.3295 23.9073 28.442 23.9404 28.5578 23.9636C28.5645 23.9636 28.5711 23.9669 28.5777 23.9669C28.6935 23.9901 28.8127 24 28.9351 24C29.0576 24 29.1767 23.9868 29.2925 23.9669C29.2959 23.9669 29.2993 23.9669 29.3027 23.9665C29.3059 23.966 29.3092 23.9652 29.3124 23.9636C29.4282 23.9404 29.5407 23.9073 29.65 23.8643C29.6566 23.861 29.6665 23.8577 29.6731 23.8544C29.7823 23.8081 29.8882 23.7518 29.9875 23.6889C29.9908 23.6873 29.9941 23.6848 29.9974 23.6823C29.999 23.6812 30.0005 23.68 30.002 23.679L30.0042 23.6775L30.0074 23.6757C30.1133 23.6029 30.2159 23.5234 30.3052 23.4308L41.5771 12.1589L52.8491 23.4308C52.9384 23.5201 53.041 23.6029 53.1469 23.6757C53.1502 23.6773 53.1535 23.6798 53.1569 23.6823C53.1602 23.6848 53.1635 23.6873 53.1668 23.6889C53.2661 23.7518 53.372 23.8081 53.4812 23.8544C53.4845 23.856 53.4886 23.8577 53.4928 23.8594C53.4969 23.861 53.501 23.8627 53.5043 23.8643C53.6136 23.9073 53.7261 23.9404 53.8419 23.9636C53.8452 23.9636 53.8485 23.9644 53.8518 23.9653L53.8519 23.9653L53.8575 23.9665C53.8589 23.9668 53.8603 23.9669 53.8618 23.9669C53.9776 23.9901 54.0967 24 54.2192 24C54.3416 24 54.4608 23.9868 54.5766 23.9669L54.5808 23.9669L54.5855 23.9666C54.5874 23.9664 54.5893 23.9661 54.5913 23.9656C54.593 23.9651 54.5947 23.9645 54.5965 23.9636C54.7123 23.9404 54.8248 23.9073 54.934 23.8643C54.9361 23.8632 54.9386 23.8622 54.9412 23.8611L54.9456 23.8594L54.9529 23.8564L54.9572 23.8544C55.0664 23.8081 55.1723 23.7518 55.2716 23.6889L55.2716 23.6889C55.2782 23.6856 55.2848 23.6823 55.2914 23.6757C55.5065 23.5334 55.6919 23.348 55.8342 23.1329C55.8358 23.1296 55.8383 23.1263 55.8408 23.123C55.8433 23.1197 55.8458 23.1164 55.8474 23.1131C55.9103 23.0138 55.9666 22.9079 56.0129 22.7987C56.0162 22.7921 56.0195 22.7821 56.0228 22.7755C56.0658 22.6663 56.0989 22.5538 56.1221 22.4379C56.1221 22.4346 56.1229 22.4313 56.1238 22.428C56.1246 22.4247 56.1254 22.4214 56.1254 22.4181C56.1486 22.3023 56.1585 22.1831 56.1585 22.0607V1.94264C56.1552 0.86707 55.2881 0 54.2192 0ZM98.132 20.118H91.95V1.93933C91.95 0.867072 91.0829 0 90.0106 0C88.9384 0 88.0713 0.867072 88.0713 1.93933V22.0574C88.0713 23.1296 88.9384 23.9967 90.0106 23.9967H98.132C99.2042 23.9967 100.071 23.1296 100.071 22.0574C100.068 20.9851 99.2009 20.118 98.132 20.118ZM108.878 20.118H115.06C116.129 20.118 116.996 20.9851 116.999 22.0574C116.999 23.1296 116.129 23.9967 115.06 23.9967H106.938C105.866 23.9967 104.999 23.1296 104.999 22.0574V1.93933C104.999 0.867072 105.866 0 106.938 0C108.011 0 108.878 0.867072 108.878 1.93933V20.118ZM23.9644 12.0067C23.9479 11.5136 23.7592 11.0271 23.382 10.6532C22.5976 9.86884 21.3268 9.86884 20.5425 10.6532C20.1685 11.0271 19.9766 11.5169 19.96 12.0067H19.9501C19.9501 14.1115 19.1227 16.1468 17.6269 17.6394C14.5193 20.7469 9.4658 20.7469 6.35825 17.6394L18.8944 5.10326L18.9142 5.0834L18.9275 5.07017C19.2783 4.70944 19.4934 4.21633 19.4934 3.67358C19.4934 2.94551 19.1029 2.3134 18.5204 1.9626C18.5121 1.95598 18.503 1.94936 18.4939 1.94274C18.4848 1.93613 18.4757 1.92951 18.4675 1.92289C18.4675 1.92289 18.4641 1.92289 18.4641 1.91958C17.9313 1.5754 17.3753 1.28417 16.8028 1.03597C16.7792 1.02565 16.7557 1.01403 16.7318 1.00226C16.7021 0.987593 16.6719 0.9727 16.6407 0.959846C16.4189 0.867181 16.1939 0.787757 15.9655 0.708331C15.9076 0.688474 15.8505 0.667791 15.7934 0.647108L15.7934 0.647105C15.7363 0.626422 15.6793 0.605739 15.6213 0.585883C15.4095 0.519694 15.1944 0.460122 14.9793 0.407171C14.9308 0.395338 14.8827 0.383082 14.8347 0.370857C14.7485 0.34889 14.6627 0.327022 14.5756 0.307887C14.3671 0.261555 14.1619 0.221846 13.9501 0.188752C13.82 0.168061 13.6873 0.150008 13.5567 0.132239L13.5099 0.125872C13.3081 0.0993967 13.1029 0.0762266 12.901 0.0596794C12.7851 0.0498124 12.6673 0.0454628 12.5504 0.0411465C12.5105 0.039672 12.4707 0.0382014 12.4311 0.036516L12.3163 0.0323806C12.1583 0.0265234 11.9991 0.0206178 11.842 0.0232805C11.7104 0.0257632 11.5788 0.0338304 11.4472 0.0418977L11.4472 0.0419C11.4034 0.0445859 11.3596 0.0472718 11.3158 0.0497516C11.2642 0.0526146 11.2124 0.0549275 11.1605 0.0572455C11.0324 0.0629657 10.9035 0.0687175 10.7763 0.0828479C10.4355 0.115942 10.0979 0.165585 9.76365 0.228464C9.66878 0.246114 9.57391 0.269647 9.47904 0.293181C9.43161 0.304948 9.38417 0.316716 9.33673 0.327748C9.12493 0.37408 8.91313 0.423722 8.70132 0.483291C8.57102 0.520935 8.44325 0.563644 8.31358 0.606988L8.25786 0.625595C8.05598 0.691783 7.85742 0.757974 7.65885 0.834091C7.56709 0.869545 7.47664 0.907626 7.38585 0.945852L7.38583 0.945859C7.33256 0.96829 7.27916 0.99077 7.22532 1.0128C7.02675 1.09884 6.8348 1.1882 6.63955 1.28417C6.50055 1.35367 6.36486 1.42317 6.22918 1.49598C6.03061 1.60519 5.83866 1.72102 5.64672 1.84016C5.60711 1.86517 5.56783 1.88953 5.52878 1.91375C5.44383 1.96643 5.35995 2.01845 5.27606 2.07513C5.06757 2.21743 4.86569 2.36967 4.66713 2.52521C4.63404 2.55057 4.60059 2.57557 4.56714 2.60056L4.56711 2.60059C4.50018 2.6506 4.43326 2.70061 4.36928 2.75356C4.07474 2.99515 3.79013 3.25329 3.51214 3.52797C-1.17071 8.21082 -1.17071 15.7993 3.51214 20.4822C8.19498 25.165 15.7835 25.165 20.463 20.4822C22.7565 18.1888 23.9049 15.1937 23.9512 12.1854C23.9545 12.1358 23.9578 12.0829 23.9578 12.0332V12.0067H23.9644ZM84.4541 10.6596C84.8314 11.0336 85.02 11.5234 85.0365 12.0131V12.0165H85.0465V12.0429C85.0465 12.0926 85.0432 12.1455 85.0398 12.1952C84.9935 15.2034 83.8451 18.1985 81.5517 20.4919C81.5487 20.4949 81.5451 20.4979 81.5411 20.5012C81.5361 20.5052 81.5307 20.5096 81.5252 20.5151C81.2539 20.7864 80.9693 21.0413 80.678 21.2796C80.6193 21.3281 80.5593 21.3718 80.4989 21.4158C80.4606 21.4437 80.422 21.4717 80.3835 21.5013L80.3832 21.5015C80.1715 21.6636 79.9598 21.8257 79.7414 21.9712C79.6742 22.0154 79.6058 22.0563 79.5376 22.097C79.4884 22.1265 79.4392 22.1558 79.3906 22.1863C79.1822 22.3154 78.9704 22.4445 78.7552 22.5603C78.6714 22.6066 78.5876 22.6471 78.5038 22.6875C78.4619 22.7077 78.4199 22.728 78.378 22.7489C78.1628 22.8548 77.9444 22.9574 77.726 23.0501C77.5936 23.1064 77.4613 23.156 77.3289 23.2056C77.1105 23.2884 76.8887 23.3678 76.667 23.4373C76.5744 23.466 76.4817 23.4917 76.3891 23.5174C76.3427 23.5303 76.2964 23.5432 76.25 23.5564C76.0283 23.616 75.8098 23.6723 75.5881 23.7186C75.4425 23.7484 75.2969 23.7782 75.1479 23.8047C74.9328 23.8411 74.7177 23.8708 74.5026 23.8973C74.3471 23.9172 74.1882 23.9337 74.0294 23.947C73.8308 23.9635 73.6289 23.9701 73.4271 23.9767L73.4206 23.977C73.2474 23.9835 73.0774 23.9899 72.9042 23.9867C72.7695 23.9842 72.6367 23.976 72.5044 23.9679C72.4611 23.9653 72.4179 23.9626 72.3747 23.9602C72.325 23.9569 72.2754 23.9538 72.2257 23.9507C72.0768 23.9414 71.9279 23.9321 71.779 23.9172C71.7042 23.9093 71.6307 23.8979 71.5569 23.8865C71.5065 23.8787 71.456 23.8709 71.405 23.8642C69.4094 23.5895 67.48 22.8118 65.8054 21.5344L65.8021 21.5311C65.3818 21.2101 64.9748 20.8725 64.5909 20.4886C59.9179 15.8124 59.9179 8.2073 64.5909 3.53438C69.2439 -1.12199 76.8027 -1.13523 81.4822 3.47812C81.8827 3.84547 82.1408 4.36836 82.1408 4.95744C82.1408 5.5399 81.8893 6.05948 81.4955 6.42683L69.0421 18.8802C69.0652 18.8935 69.0876 18.9067 69.1099 18.9199C69.1322 18.9332 69.1546 18.9464 69.1777 18.9597C69.2345 18.9917 69.2931 19.022 69.3508 19.0517C69.3705 19.0619 69.39 19.072 69.4094 19.0821C69.5285 19.145 69.6543 19.2045 69.7767 19.2608C69.8562 19.2972 69.9389 19.3336 70.0216 19.3667L70.0219 19.3668C70.1443 19.4164 70.2666 19.466 70.3923 19.509C70.4783 19.5388 70.5644 19.5686 70.6504 19.5951C70.7762 19.6348 70.8986 19.6712 71.0244 19.7043C71.1138 19.7274 71.2064 19.7506 71.2958 19.7705C71.4182 19.8002 71.5407 19.8234 71.6664 19.8466C71.7591 19.8631 71.8551 19.8797 71.9477 19.8929C72.0593 19.908 72.1737 19.9203 72.2858 19.9324L72.3184 19.9359C72.4144 19.9459 72.5103 19.9525 72.6063 19.9591C72.7288 19.9657 72.8512 19.969 72.9737 19.969C73.0055 19.969 73.0378 19.9694 73.0701 19.9698C73.1352 19.9705 73.2008 19.9712 73.2649 19.969C73.384 19.9657 73.5065 19.9591 73.6289 19.9492C73.7249 19.9425 73.8242 19.9359 73.9202 19.926C74.0393 19.9128 74.1617 19.8962 74.2809 19.8764L74.2985 19.8739C74.389 19.8615 74.482 19.8487 74.5721 19.83C74.6913 19.8069 74.8104 19.7804 74.9295 19.7506C74.9615 19.7429 74.9935 19.7355 75.0255 19.7282C75.0895 19.7135 75.1535 19.6988 75.2175 19.6811C75.3333 19.648 75.4524 19.6083 75.5683 19.5686C75.6609 19.5388 75.7536 19.509 75.8462 19.4759C75.9653 19.4296 76.0811 19.38 76.1969 19.3304L76.197 19.3303C76.2864 19.2939 76.3757 19.2575 76.4618 19.2178C76.5809 19.1615 76.6968 19.0986 76.8126 19.0358C76.8501 19.0147 76.8884 18.9951 76.9263 18.9755C76.9721 18.952 77.0174 18.9287 77.0608 18.9034C77.1493 18.8532 77.2343 18.7978 77.3197 18.7422C77.3524 18.7208 77.3852 18.6995 77.4182 18.6783C77.4466 18.6594 77.4762 18.641 77.5059 18.6225C77.5489 18.5957 77.5923 18.5687 77.6333 18.5393C77.7657 18.4467 77.8948 18.3441 78.0238 18.2415C78.0487 18.22 78.0751 18.2001 78.1016 18.1803C78.1281 18.1604 78.1546 18.1406 78.1794 18.1191C78.3581 17.9701 78.5302 17.8146 78.699 17.6458C80.1948 16.1532 81.0222 14.1179 81.0222 12.0131H81.0321C81.0487 11.5234 81.2406 11.0336 81.6146 10.6596C82.3989 9.87526 83.6697 9.87526 84.4541 10.6596ZM77.0972 5.13946C74.0459 3.35236 70.0481 3.76604 67.4337 6.38049C64.8192 8.99494 64.4055 12.9927 66.1926 16.044L77.0972 5.13946Z" fill="#070A26"/>
</svg>
