<svg width="64" height="14" viewBox="0 0 64 14" fill="none" xmlns="http://www.w3.org/2000/svg">
<g id="Union">
<path id="Union_2" fill-rule="evenodd" clip-rule="evenodd" d="M29.6586 0C29.072 0 28.5977 0.474299 28.5977 1.06084V9.50408L23.4999 4.40627C23.2917 4.19809 23.0166 4.0949 22.7432 4.09671C22.4699 4.0949 22.1965 4.19809 21.9865 4.40627L16.8887 9.50408V1.06084C16.8887 0.474299 16.4144 0 15.8279 0C15.2431 0 14.767 0.474299 14.767 1.06084V12.0657C14.767 12.1326 14.7743 12.1978 14.7851 12.2612C14.7851 12.263 14.7856 12.2648 14.786 12.2666L14.786 12.2666C14.7865 12.2684 14.7869 12.2702 14.7869 12.272C14.7996 12.3354 14.8177 12.3969 14.8413 12.4567C14.8431 12.4603 14.8449 12.4657 14.8467 12.4711L14.8467 12.4712C14.872 12.5309 14.9028 12.5888 14.9372 12.6431C14.939 12.6468 14.9408 12.6504 14.9444 12.654C15.0223 12.7717 15.1237 12.873 15.2413 12.9509C15.2434 12.9519 15.2455 12.9536 15.2476 12.9551C15.2491 12.9563 15.2507 12.9574 15.2522 12.9581C15.3065 12.9925 15.3644 13.0233 15.4242 13.0486C15.426 13.0495 15.4282 13.0505 15.4305 13.0514L15.4305 13.0514L15.4335 13.0526L15.4368 13.0541C15.4966 13.0776 15.5581 13.0957 15.6215 13.1084C15.622 13.1084 15.6225 13.1084 15.623 13.1085C15.6235 13.1085 15.624 13.1086 15.6245 13.1087L15.6269 13.1093C15.6287 13.1097 15.6305 13.1102 15.6324 13.1102C15.6957 13.1229 15.7609 13.1283 15.8279 13.1283C15.8948 13.1283 15.96 13.1211 16.0234 13.1102C16.027 13.1102 16.0306 13.1102 16.0342 13.1084C16.0976 13.0957 16.1592 13.0776 16.2189 13.0541L16.2232 13.0522C16.2261 13.051 16.2292 13.0498 16.2316 13.0486C16.2913 13.0233 16.3492 12.9925 16.4035 12.9581C16.4054 12.9572 16.4072 12.9559 16.409 12.9545C16.4108 12.9532 16.4126 12.9518 16.4144 12.9509C16.4723 12.9111 16.5285 12.8676 16.5773 12.8169L22.7432 6.65104L28.9091 12.8169C28.958 12.8658 29.0141 12.9111 29.072 12.9509C29.0738 12.9518 29.0756 12.9532 29.0775 12.9545C29.0793 12.9559 29.0811 12.9572 29.0829 12.9581C29.1372 12.9925 29.1951 13.0233 29.2549 13.0486C29.2567 13.0495 29.2589 13.0505 29.2612 13.0514C29.2635 13.0523 29.2657 13.0532 29.2675 13.0541C29.3273 13.0776 29.3888 13.0957 29.4522 13.1084C29.4534 13.1084 29.4547 13.1086 29.4559 13.1089L29.4576 13.1093L29.4608 13.11L29.4631 13.1102C29.5264 13.1229 29.5916 13.1283 29.6586 13.1283C29.7255 13.1283 29.7907 13.1211 29.8541 13.1102C29.8553 13.1102 29.8565 13.1102 29.8578 13.1101C29.8586 13.1101 29.8594 13.11 29.8602 13.1099C29.8618 13.1096 29.8633 13.1092 29.8649 13.1084C29.9283 13.0957 29.9898 13.0776 30.0496 13.0541C30.0514 13.0532 30.0537 13.0523 30.0559 13.0514C30.0582 13.0505 30.0604 13.0495 30.0623 13.0486C30.122 13.0233 30.1799 12.9925 30.2342 12.9581L30.2343 12.9581C30.2379 12.9563 30.2415 12.9545 30.2451 12.9509C30.3628 12.873 30.4641 12.7717 30.542 12.654C30.5425 12.6529 30.5432 12.6519 30.544 12.6508C30.5445 12.6501 30.545 12.6493 30.5456 12.6486L30.5465 12.6474C30.5475 12.646 30.5485 12.6446 30.5492 12.6431C30.5836 12.5888 30.6144 12.5309 30.6397 12.4712L30.6405 12.4696L30.6425 12.4648C30.6434 12.4626 30.6443 12.4603 30.6452 12.4585C30.6687 12.3987 30.6868 12.3372 30.6995 12.2738C30.6995 12.272 30.6999 12.2702 30.7004 12.2684C30.7008 12.2666 30.7013 12.2648 30.7013 12.263C30.714 12.1996 30.7194 12.1344 30.7194 12.0675V1.06265C30.7176 0.474298 30.2433 0 29.6586 0ZM53.6794 11.0048H50.2978V1.06084C50.2978 0.474299 49.8235 0 49.2369 0C48.6504 0 48.1761 0.474299 48.1761 1.06084V12.0657C48.1761 12.6522 48.6504 13.1265 49.2369 13.1265H53.6794C54.2659 13.1265 54.7402 12.6522 54.7402 12.0657C54.7384 11.4791 54.2641 11.0048 53.6794 11.0048ZM59.5575 11.0048H62.9392C63.5239 11.0048 63.9982 11.4791 64 12.0657C64 12.6522 63.5239 13.1265 62.9392 13.1265H58.4967C57.9101 13.1265 57.4358 12.6522 57.4358 12.0657V1.06084C57.4358 0.474299 57.9101 0 58.4967 0C59.0832 0 59.5575 0.474299 59.5575 1.06084V11.0048ZM13.1088 6.56783C13.0998 6.2981 12.9966 6.03198 12.7902 5.82742C12.3612 5.39838 11.666 5.39838 11.237 5.82742C11.0324 6.03198 10.9274 6.29991 10.9184 6.56783H10.9129C10.9129 7.71918 10.4604 8.83252 9.64211 9.64896C7.94224 11.3488 5.17791 11.3488 3.47804 9.64896L10.3355 2.79154L10.3463 2.78068L10.3536 2.77344C10.5455 2.57612 10.6631 2.30639 10.6631 2.0095C10.6631 1.61123 10.4495 1.26546 10.1309 1.07357C10.1264 1.06995 10.1214 1.06633 10.1164 1.06271C10.1114 1.05909 10.1065 1.05547 10.1019 1.05185C10.1019 1.05185 10.1001 1.05185 10.1001 1.05004C9.80866 0.861765 9.50453 0.702459 9.19135 0.566686C9.17846 0.561048 9.16557 0.554692 9.15252 0.548257L9.15251 0.548249C9.13624 0.540225 9.11972 0.532078 9.10264 0.525047C8.98135 0.474359 8.85825 0.430913 8.73334 0.387466C8.70166 0.376605 8.67044 0.365291 8.63921 0.353978C8.60798 0.342663 8.57675 0.331348 8.54507 0.320485C8.42921 0.284279 8.31154 0.251692 8.19387 0.222727C8.16734 0.216255 8.14103 0.209551 8.11479 0.202864L8.11477 0.202859C8.06763 0.190844 8.02069 0.178884 7.97302 0.168418C7.85897 0.143074 7.74673 0.121353 7.63087 0.10325C7.55972 0.0919311 7.48713 0.0820563 7.41568 0.0723361L7.3901 0.0688536C7.27967 0.0543712 7.16743 0.0416969 7.057 0.0326454C6.99358 0.027248 6.92916 0.0248687 6.86523 0.0225076L6.79994 0.0199747L6.73715 0.0177126C6.65075 0.0145086 6.56364 0.0112782 6.47771 0.0127347C6.40573 0.0140928 6.33376 0.0185057 6.26178 0.0229186L6.18987 0.0272147C6.16168 0.0287809 6.13334 0.030046 6.10493 0.031314C6.03484 0.034443 5.96436 0.0375893 5.89479 0.0453188C5.70833 0.0634218 5.52368 0.0905768 5.34084 0.124972C5.28895 0.134627 5.23705 0.1475 5.18516 0.160373L5.18513 0.160379C5.15919 0.166814 5.13325 0.173249 5.10731 0.179282C4.99145 0.204626 4.87559 0.231781 4.75973 0.264366C4.68846 0.284957 4.61856 0.308319 4.54763 0.332029L4.51715 0.342208C4.40672 0.378414 4.29811 0.414621 4.18949 0.456258C4.13929 0.475651 4.08982 0.49648 4.04016 0.517389L4.04015 0.517392C4.01101 0.529663 3.9818 0.541962 3.95234 0.554013C3.84372 0.601081 3.73872 0.64996 3.63191 0.702459C3.55588 0.740475 3.48166 0.778491 3.40744 0.818318C3.29882 0.878058 3.19382 0.941417 3.08882 1.00659C3.06716 1.02027 3.04567 1.0336 3.02431 1.04685C2.97784 1.07566 2.93196 1.10412 2.88607 1.13512C2.77202 1.21296 2.66159 1.29624 2.55298 1.38132C2.53488 1.3952 2.51658 1.40887 2.49828 1.42254L2.49826 1.42256C2.46166 1.44991 2.42505 1.47727 2.39005 1.50623C2.22893 1.63838 2.07325 1.77959 1.92118 1.92984C-0.640394 4.49142 -0.640394 8.64244 1.92118 11.204C4.48276 13.7656 8.63377 13.7656 11.1935 11.204C12.4481 9.94948 13.0763 8.31115 13.1016 6.66559C13.1034 6.63843 13.1052 6.60947 13.1052 6.58231V6.56783H13.1088ZM46.1974 5.83093C46.4038 6.03549 46.507 6.30342 46.516 6.57134V6.57315H46.5215V6.58763C46.5215 6.61479 46.5197 6.64375 46.5178 6.67091C46.4925 8.31647 45.8643 9.95479 44.6098 11.2093C44.6062 11.213 44.6007 11.2166 44.5953 11.222C44.4469 11.3704 44.2912 11.5098 44.1319 11.6402C44.0998 11.6668 44.067 11.6906 44.0339 11.7147C44.0129 11.73 43.9918 11.7453 43.9708 11.7615L43.9707 11.7615C43.8549 11.8502 43.739 11.9389 43.6196 12.0185C43.5828 12.0427 43.5454 12.0651 43.508 12.0874C43.4811 12.1034 43.4542 12.1195 43.4277 12.1362C43.3136 12.2068 43.1978 12.2774 43.0801 12.3408C43.0342 12.3661 42.9884 12.3882 42.9426 12.4103C42.9196 12.4214 42.8967 12.4325 42.8737 12.444C42.756 12.5019 42.6366 12.558 42.5171 12.6087C42.4447 12.6395 42.3723 12.6666 42.2999 12.6938C42.1804 12.739 42.0591 12.7825 41.9378 12.8205C41.8871 12.8362 41.8365 12.8503 41.7858 12.8643C41.7604 12.8714 41.7351 12.8784 41.7097 12.8857C41.5884 12.9183 41.4689 12.949 41.3476 12.9744C41.268 12.9907 41.1883 13.007 41.1069 13.0214C40.9892 13.0414 40.8715 13.0576 40.7539 13.0721C40.6688 13.083 40.5819 13.092 40.495 13.0993C40.3864 13.1083 40.2759 13.112 40.1655 13.1156L40.1619 13.1157C40.0672 13.1193 39.9742 13.1228 39.8795 13.121C39.8058 13.1196 39.7332 13.1152 39.6608 13.1108C39.6371 13.1093 39.6135 13.1079 39.5898 13.1065C39.5627 13.1047 39.5355 13.103 39.5084 13.1013C39.4269 13.0962 39.3454 13.0911 39.264 13.083C39.2231 13.0787 39.1829 13.0725 39.1425 13.0662C39.1149 13.062 39.0873 13.0577 39.0594 13.054C37.9678 12.9038 36.9124 12.4784 35.9964 11.7796L35.9946 11.7778C35.7647 11.6022 35.542 11.4175 35.332 11.2075C32.7759 8.64957 32.7759 4.48949 35.332 1.93335C37.8773 -0.613743 42.012 -0.620984 44.5718 1.90257C44.7908 2.10352 44.932 2.38955 44.932 2.71178C44.932 3.03039 44.7944 3.31461 44.579 3.51555L37.7669 10.3277C37.7795 10.335 37.7917 10.3422 37.804 10.3494C37.8162 10.3567 37.8284 10.3639 37.8411 10.3712C37.8722 10.3887 37.9042 10.4053 37.9358 10.4216C37.9465 10.4271 37.9572 10.4326 37.9678 10.4381C38.033 10.4725 38.1018 10.5051 38.1687 10.5359C38.2122 10.5558 38.2575 10.5757 38.3027 10.5938L38.3029 10.5939C38.3698 10.621 38.4367 10.6482 38.5055 10.6717C38.5525 10.688 38.5996 10.7043 38.6467 10.7187C38.7155 10.7405 38.7824 10.7604 38.8512 10.7785C38.9001 10.7912 38.9508 10.8038 38.9997 10.8147C39.0667 10.831 39.1336 10.8436 39.2024 10.8563C39.2531 10.8654 39.3056 10.8744 39.3563 10.8817C39.4174 10.8899 39.4799 10.8967 39.5413 10.9033L39.5591 10.9052C39.6116 10.9106 39.6641 10.9143 39.7165 10.9179C39.7835 10.9215 39.8505 10.9233 39.9175 10.9233C39.9349 10.9233 39.9526 10.9235 39.9703 10.9237C40.0059 10.9241 40.0417 10.9245 40.0768 10.9233C40.142 10.9215 40.209 10.9179 40.2759 10.9124L40.2854 10.9118C40.3349 10.9084 40.3859 10.9049 40.4352 10.8998C40.5004 10.8925 40.5674 10.8835 40.6326 10.8726L40.6422 10.8713C40.6917 10.8645 40.7426 10.8575 40.7919 10.8473C40.857 10.8346 40.9222 10.8201 40.9874 10.8038C41.0049 10.7996 41.0224 10.7956 41.0399 10.7915C41.0749 10.7835 41.1099 10.7755 41.1449 10.7658C41.2082 10.7477 41.2734 10.726 41.3368 10.7043L41.3369 10.7042C41.3875 10.6879 41.4382 10.6717 41.4888 10.6536C41.5539 10.6283 41.6172 10.6011 41.6805 10.574L41.6807 10.5739C41.7296 10.554 41.7785 10.5341 41.8256 10.5124C41.8907 10.4816 41.9541 10.4472 42.0174 10.4128C42.038 10.4013 42.0589 10.3905 42.0796 10.3799C42.1047 10.367 42.1295 10.3542 42.1532 10.3404C42.2016 10.3129 42.2481 10.2826 42.2948 10.2522C42.3127 10.2405 42.3307 10.2288 42.3487 10.2173C42.3643 10.2069 42.3804 10.1969 42.3967 10.1867C42.4202 10.1721 42.4439 10.1573 42.4664 10.1413C42.5388 10.0906 42.6093 10.0345 42.6799 9.9784L42.68 9.97832C42.6936 9.96656 42.7081 9.9557 42.7226 9.94483C42.737 9.93397 42.7515 9.92311 42.7651 9.91134C42.8629 9.82988 42.957 9.7448 43.0493 9.65247C43.8676 8.83603 44.3201 7.72269 44.3201 6.57134H44.3256C44.3346 6.30342 44.4396 6.03549 44.6442 5.83093C45.0732 5.40189 45.7684 5.40189 46.1974 5.83093ZM42.1731 2.81135C40.504 1.83378 38.3172 2.06007 36.8871 3.49021C35.4569 4.92035 35.2306 7.10719 36.2082 8.77629L42.1731 2.81135Z" fill="#5B5D70"/>
</g>
</svg>
