<svg width="12" height="12" viewBox="0 0 12 12" fill="none" xmlns="http://www.w3.org/2000/svg">
<path d="M6 10.3125C8.38173 10.3125 10.3125 8.38173 10.3125 6C10.3125 3.61827 8.38173 1.6875 6 1.6875C3.61827 1.6875 1.6875 3.61827 1.6875 6C1.6875 8.38173 3.61827 10.3125 6 10.3125ZM6 11.25C3.1005 11.25 0.75 8.89949 0.75 6C0.75 3.1005 3.1005 0.75 6 0.75C8.8995 0.75 11.25 3.1005 11.25 6C11.25 8.89949 8.8995 11.25 6 11.25ZM6.52661 7.6875V5.4C6.52661 5.31716 6.45945 5.25 6.37661 5.25H5.26871C5.18587 5.25 5.11871 5.31716 5.11871 5.4V6.0375C5.11871 6.12034 5.18587 6.1875 5.26871 6.1875H5.58911V7.6875H5.26871C5.18587 7.6875 5.11871 7.75466 5.11871 7.8375V8.475C5.11871 8.55784 5.18587 8.625 5.26871 8.625H6.73121C6.81406 8.625 6.88121 8.55784 6.88121 8.475V7.8375C6.88121 7.75466 6.81406 7.6875 6.73121 7.6875H6.52661ZM6.00007 4.725C6.37287 4.725 6.67507 4.42279 6.67507 4.05C6.67507 3.67721 6.37287 3.375 6.00007 3.375C5.62728 3.375 5.32507 3.67721 5.32507 4.05C5.32507 4.42279 5.62728 4.725 6.00007 4.725Z" fill="#070A26"/>
</svg>
