<svg width="12" height="12" viewBox="0 0 12 12" fill="none" xmlns="http://www.w3.org/2000/svg">
<path d="M6 10.3125C8.38173 10.3125 10.3125 8.38173 10.3125 6C10.3125 3.61827 8.38173 1.6875 6 1.6875C3.61827 1.6875 1.6875 3.61827 1.6875 6C1.6875 8.38173 3.61827 10.3125 6 10.3125ZM6 11.25C3.10051 11.25 0.75 8.89949 0.75 6C0.75 3.1005 3.10051 0.75 6 0.75C8.8995 0.75 11.25 3.1005 11.25 6C11.25 8.89949 8.8995 11.25 6 11.25ZM6.73605 8.32501C6.73605 8.6978 6.43384 9.00001 6.06105 9.00001C5.68826 9.00001 5.38605 8.6978 5.38605 8.32501C5.38605 7.95222 5.68826 7.65001 6.06105 7.65001C6.43384 7.65001 6.73605 7.95222 6.73605 8.32501ZM5.19137 4.93139C5.27421 4.93139 5.3396 4.86334 5.35824 4.78262C5.42568 4.4905 5.68743 4.27272 6.00004 4.27272C6.36381 4.27272 6.6587 4.56762 6.6587 4.93139C6.6587 5.14149 6.56085 5.32849 6.40636 5.44985C6.24219 5.57882 6.03137 5.75049 5.8622 5.95847C5.69098 6.16895 5.53129 6.45441 5.53129 6.8088V6.9375C5.53129 7.02035 5.59844 7.0875 5.68128 7.0875H6.31879C6.40163 7.0875 6.46879 7.02035 6.46879 6.9375V6.8088C6.46879 6.74898 6.49417 6.66721 6.58947 6.55005C6.68682 6.43038 6.82394 6.31399 6.9855 6.18708C7.3565 5.89563 7.5962 5.44137 7.5962 4.93139C7.5962 4.04985 6.88157 3.33522 6.00004 3.33522C5.16903 3.33522 4.48635 3.97026 4.41081 4.78153C4.40313 4.86401 4.47103 4.93139 4.55387 4.93139H5.19137Z" fill="#070A26"/>
</svg>
