<svg width="24" height="24" viewBox="0 0 24 24" fill="none" xmlns="http://www.w3.org/2000/svg">
<g id="Reddit">
<path id="Vector" fill-rule="evenodd" clip-rule="evenodd" d="M22 12.0668C22 10.8582 21.0202 9.87837 19.8116 9.87837C19.2215 9.87837 18.6873 10.1129 18.2936 10.4924C16.7976 9.413 14.7365 8.71568 12.4408 8.63563L13.4377 3.94505L16.6947 4.63753C16.7345 5.46563 17.4127 6.12647 18.2505 6.12647C19.1141 6.12647 19.814 5.42653 19.814 4.56326C19.814 3.69995 19.1141 3 18.2505 3C17.6365 3 17.1107 3.35747 16.855 3.87253L13.2179 3.09937C13.1167 3.07737 13.0106 3.09716 12.9239 3.15389C12.8367 3.21037 12.776 3.29921 12.7543 3.40053L11.641 8.63411C9.31163 8.69874 7.21753 9.39695 5.70221 10.4884C5.30916 10.1114 4.77647 9.87837 4.18868 9.87837C2.98 9.87837 2 10.8582 2 12.0668C2 12.9561 2.53132 13.7199 3.29305 14.0625C3.25942 14.2801 3.24095 14.5008 3.24095 14.7244C3.24095 18.0916 7.16037 20.821 11.9952 20.821C16.8299 20.821 20.7496 18.0916 20.7496 14.7244C20.7496 14.5024 20.7313 14.2829 20.6982 14.0668C21.4647 13.7263 22 12.9598 22 12.0668ZM15.7119 17.7612C14.6451 18.8265 12.6006 18.9094 11.9996 18.9094C11.3981 18.9094 9.35342 18.8265 8.28789 17.7609C8.12963 17.6026 8.12963 17.3461 8.28789 17.1878C8.44595 17.03 8.70274 17.0298 8.86079 17.1878C9.53326 17.8605 10.9718 18.0993 11.9996 18.0993C13.0271 18.0993 14.4659 17.8605 15.1394 17.1876C15.2982 17.0298 15.5545 17.03 15.7123 17.1881C15.8706 17.3465 15.8704 17.6029 15.7119 17.7612ZM15.4366 15.1937C14.5749 15.1937 13.8734 14.4925 13.8734 13.6307C13.8734 12.7685 14.5749 12.0668 15.4366 12.0668C16.2986 12.0668 17.0001 12.7685 17.0001 13.6307C17.0001 14.4925 16.2986 15.1937 15.4366 15.1937ZM6.99526 13.6305C6.99526 12.7683 7.69674 12.0668 8.55916 12.0668C9.42068 12.0668 10.1217 12.7683 10.1217 13.6305C10.1217 14.4922 9.42068 15.1933 8.55916 15.1933C7.69674 15.1933 6.99526 14.4922 6.99526 13.6305Z" fill="#070A26"/>
</g>
</svg>
