<svg width="24" height="24" viewBox="0 0 24 24" fill="none" xmlns="http://www.w3.org/2000/svg">
<g id="Group 3385">
<circle id="Circle" cx="12" cy="12" r="12" fill="white"/>
<path id="Circle (Stroke)" fill-rule="evenodd" clip-rule="evenodd" d="M12 23.5C18.3513 23.5 23.5 18.3513 23.5 12C23.5 5.64873 18.3513 0.5 12 0.5C5.64873 0.5 0.5 5.64873 0.5 12C0.5 18.3513 5.64873 23.5 12 23.5ZM12 24C18.6274 24 24 18.6274 24 12C24 5.37258 18.6274 0 12 0C5.37258 0 0 5.37258 0 12C0 18.6274 5.37258 24 12 24Z" fill="#E1E1E1"/>
<path id="Shape" fill-rule="evenodd" clip-rule="evenodd" d="M12.5149 7.75129C13.3299 7.75129 13.9906 7.09063 13.9906 6.27567C13.9906 5.46071 13.3299 4.80005 12.5149 4.80005C11.7 4.80005 11.0393 5.46071 11.0393 6.27567C11.0393 7.09063 11.7 7.75129 12.5149 7.75129ZM19.1807 12C19.1807 13.6581 17.8366 15.0022 16.1785 15.0022C14.5205 15.0022 13.1764 13.6581 13.1764 12C13.1764 10.342 14.5205 8.99793 16.1785 8.99793C17.8366 8.99793 19.1807 10.342 19.1807 12ZM13.9906 17.7244C13.9906 18.5394 13.3299 19.2 12.5149 19.2C11.7 19.2 11.0393 18.5394 11.0393 17.7244C11.0393 16.9095 11.7 16.2488 12.5149 16.2488C13.3299 16.2488 13.9906 16.9095 13.9906 17.7244ZM4.95875 7.85305C4.52624 8.99793 5.13684 10.2955 6.28172 10.728C7.04497 11.0078 7.85911 10.8552 8.44427 10.3718C8.97854 9.99015 9.66547 9.86295 10.327 10.1174C10.7595 10.27 11.0902 10.5499 11.3192 10.9061L11.3446 10.9569C11.4464 11.1096 11.599 11.2622 11.8026 11.3131C12.2605 11.4912 12.7948 11.2368 12.9474 10.7788C13.1255 10.3209 12.8711 9.78662 12.4132 9.63397C12.2096 9.55765 12.0061 9.55765 11.8026 9.63397C11.3955 9.76118 10.9376 9.76118 10.505 9.60853C9.869 9.37955 9.43649 8.87072 9.2584 8.28556L9.23296 8.23468C9.23296 8.20924 9.23296 8.18379 9.20752 8.18379V8.13291C9.02942 7.42054 8.54603 6.80994 7.80822 6.55553C6.66335 6.09757 5.36582 6.68273 4.95875 7.85305ZM6.28172 13.2721C5.13684 13.7046 4.52624 15.0022 4.95875 16.147C5.39126 17.3174 6.66335 17.9025 7.80822 17.4446C8.54603 17.1902 9.02942 16.5796 9.20752 15.8672V15.8163C9.23296 15.8163 9.23296 15.7909 9.23296 15.7654L9.2584 15.7145C9.43649 15.1294 9.869 14.6205 10.505 14.3916C10.9376 14.2389 11.3955 14.2389 11.8026 14.3661C12.0061 14.4425 12.2096 14.4425 12.4132 14.3661C12.8711 14.2135 13.1255 13.6792 12.9474 13.2212C12.7948 12.7633 12.2605 12.5089 11.8026 12.687C11.599 12.7379 11.4464 12.8905 11.3446 13.0432L11.3192 13.094C11.0902 13.4502 10.7595 13.7301 10.327 13.8827C9.66547 14.1372 8.97854 14.0099 8.44427 13.6283C7.85911 13.1449 7.04497 12.9923 6.28172 13.2721Z" fill="#266CD3"/>
</g>
</svg>
