<svg width="288" height="480" viewBox="0 0 288 480" fill="none" xmlns="http://www.w3.org/2000/svg">
<path fill-rule="evenodd" clip-rule="evenodd" d="M76.0576 408.529C84.6455 365.59 90 306.002 90 240C90 173.998 84.6455 114.41 76.0576 71.4711C74.7692 65.0288 73.4133 58.9893 72 53.3802C70.5867 58.9893 69.2308 65.0288 67.9424 71.4711C59.3545 114.41 54 173.998 54 240C54 306.002 59.3545 365.59 67.9424 408.529C69.2308 414.971 70.5867 421.011 72 426.62C73.4133 421.011 74.7692 414.971 76.0576 408.529ZM48 240C48 157.788 56.2673 85.2309 68.8718 41.9787C66.4529 33.9027 63.9014 27.0121 61.2596 21.4252C58.5332 15.6594 55.8581 11.6024 53.3828 9.06977C50.9172 6.54717 49.1317 6 48 6C46.8683 6 45.0828 6.54717 42.6172 9.06977C40.1419 11.6024 37.4668 15.6594 34.7404 21.4252C29.3021 32.9264 24.2462 49.9519 19.9424 71.4711C11.3545 114.41 6 173.998 6 240C6 306.002 11.3545 365.59 19.9424 408.529C24.2462 430.048 29.3021 447.074 34.7404 458.575C37.4668 464.341 40.1419 468.398 42.6172 470.93C45.0828 473.453 46.8683 474 48 474C49.1317 474 50.9172 473.453 53.3828 470.93C55.8581 468.398 58.5332 464.341 61.2596 458.575C63.9014 452.988 66.4529 446.097 68.8718 438.021C56.2673 394.769 48 322.212 48 240ZM48 0C56.7429 0 64.9398 11.6873 72 32.1077C79.0602 11.6873 87.2571 0 96 0C104.743 0 112.94 11.6873 120 32.1077C127.06 11.6873 135.257 0 144 0C152.743 0 160.94 11.6873 168 32.1077C175.06 11.6873 183.257 0 192 0C200.743 0 208.94 11.6873 216 32.1077C223.06 11.6873 231.257 0 240 0C266.51 0 288 107.452 288 240C288 372.548 266.51 480 240 480C231.257 480 223.06 468.313 216 447.892C208.94 468.313 200.743 480 192 480C183.257 480 175.06 468.313 168 447.892C160.94 468.313 152.743 480 144 480C135.257 480 127.06 468.313 120 447.892C112.94 468.313 104.743 480 96 480C87.2571 480 79.0602 468.313 72 447.892C64.9398 468.313 56.7429 480 48 480C21.4903 480 0 372.548 0 240C0 107.452 21.4903 0 48 0ZM219.128 438.021C221.547 446.097 224.099 452.988 226.74 458.575C229.467 464.341 232.142 468.398 234.617 470.93C237.083 473.453 238.868 474 240 474C241.132 474 242.917 473.453 245.383 470.93C247.858 468.398 250.533 464.341 253.26 458.575C258.698 447.074 263.754 430.048 268.058 408.529C276.646 365.59 282 306.002 282 240C282 173.998 276.646 114.41 268.058 71.4711C263.754 49.9519 258.698 32.9264 253.26 21.4252C250.533 15.6594 247.858 11.6024 245.383 9.06977C242.917 6.54717 241.132 6 240 6C238.868 6 237.083 6.54717 234.617 9.06977C232.142 11.6024 229.467 15.6594 226.74 21.4252C224.099 27.0121 221.547 33.9027 219.128 41.9787C231.733 85.2309 240 157.788 240 240C240 322.212 231.733 394.769 219.128 438.021ZM216 53.3802C217.413 58.9893 218.769 65.0288 220.058 71.4711C228.646 114.41 234 173.998 234 240C234 306.002 228.646 365.59 220.058 408.529C218.769 414.971 217.413 421.011 216 426.62C214.587 421.011 213.231 414.971 211.942 408.529C203.354 365.59 198 306.002 198 240C198 173.998 203.354 114.41 211.942 71.4711C213.231 65.0288 214.587 58.9893 216 53.3802ZM212.872 41.9787C210.453 33.9027 207.901 27.0121 205.26 21.4252C202.533 15.6594 199.858 11.6024 197.383 9.06977C194.917 6.54717 193.132 6 192 6C190.868 6 189.083 6.54717 186.617 9.06977C184.142 11.6024 181.467 15.6594 178.74 21.4252C176.099 27.0121 173.547 33.9027 171.128 41.9787C183.733 85.2309 192 157.788 192 240C192 322.212 183.733 394.769 171.128 438.021C173.547 446.097 176.099 452.988 178.74 458.575C181.467 464.341 184.142 468.398 186.617 470.93C189.083 473.453 190.868 474 192 474C193.132 474 194.917 473.453 197.383 470.93C199.858 468.398 202.533 464.341 205.26 458.575C207.901 452.988 210.453 446.097 212.872 438.021C200.267 394.769 192 322.212 192 240C192 157.788 200.267 85.2309 212.872 41.9787ZM157.26 21.4252C159.901 27.0121 162.453 33.9027 164.872 41.9787C152.267 85.2309 144 157.788 144 240C144 157.788 135.733 85.2309 123.128 41.9787C125.547 33.9027 128.099 27.0121 130.74 21.4252C133.467 15.6594 136.142 11.6024 138.617 9.06977C141.083 6.54717 142.868 6 144 6C145.132 6 146.917 6.54717 149.383 9.06977C151.858 11.6024 154.533 15.6594 157.26 21.4252ZM144 240C144 322.212 152.267 394.769 164.872 438.021C162.453 446.097 159.901 452.988 157.26 458.575C154.533 464.341 151.858 468.398 149.383 470.93C146.917 473.453 145.132 474 144 474C142.868 474 141.083 473.453 138.617 470.93C136.142 468.398 133.467 464.341 130.74 458.575C128.099 452.988 125.547 446.097 123.128 438.021C135.733 394.769 144 322.212 144 240ZM163.942 408.529C165.231 414.971 166.587 421.011 168 426.62C169.413 421.011 170.769 414.971 172.058 408.529C180.646 365.59 186 306.002 186 240C186 173.998 180.646 114.41 172.058 71.4711C170.769 65.0288 169.413 58.9893 168 53.3802C166.587 58.9893 165.231 65.0288 163.942 71.4711C155.354 114.41 150 173.998 150 240C150 306.002 155.354 365.59 163.942 408.529ZM120 53.3802C121.413 58.9893 122.769 65.0288 124.058 71.4711C132.646 114.41 138 173.998 138 240C138 306.002 132.646 365.59 124.058 408.529C122.769 414.971 121.413 421.011 120 426.62C118.587 421.011 117.231 414.971 115.942 408.529C107.354 365.59 102 306.002 102 240C102 173.998 107.354 114.41 115.942 71.4711C117.231 65.0288 118.587 58.9893 120 53.3802ZM116.872 41.9787C114.453 33.9027 111.901 27.0121 109.26 21.4252C106.533 15.6594 103.858 11.6024 101.383 9.06977C98.9172 6.54717 97.1317 6 96 6C94.8683 6 93.0828 6.54717 90.6172 9.06977C88.1419 11.6024 85.4668 15.6594 82.7404 21.4252C80.0986 27.0121 77.5471 33.9027 75.1282 41.9787C87.7327 85.2309 96 157.788 96 240C96 322.212 87.7327 394.769 75.1282 438.021C77.5471 446.097 80.0986 452.988 82.7404 458.575C85.4668 464.341 88.1419 468.398 90.6172 470.93C93.0828 473.453 94.8683 474 96 474C97.1317 474 98.9172 473.453 101.383 470.93C103.858 468.398 106.533 464.341 109.26 458.575C111.901 452.988 114.453 446.097 116.872 438.021C104.267 394.769 96 322.212 96 240C96 157.788 104.267 85.2309 116.872 41.9787Z" fill="#E0ED96"/>
</svg>
