<svg width="32" height="32" viewBox="0 0 32 32" fill="none" xmlns="http://www.w3.org/2000/svg">
<rect x="0.5" y="0.5" width="31" height="31" rx="5.5" stroke="#070A26"/>
<path d="M12.2258 20.6404C12.1575 20.7087 12.0467 20.7087 11.9784 20.6404L11.3596 20.0217C11.2913 19.9533 11.2913 19.8425 11.3596 19.7742L15.1338 16L11.3596 12.2258C11.2913 12.1575 11.2913 12.0467 11.3596 11.9783L11.9783 11.3596C12.0467 11.2913 12.1575 11.2913 12.2258 11.3596L16 15.1338L19.7742 11.3596C19.8426 11.2913 19.9534 11.2913 20.0217 11.3596L20.6404 11.9783C20.7088 12.0467 20.7088 12.1575 20.6404 12.2258L16.8662 16L20.6404 19.7742C20.7087 19.8425 20.7087 19.9533 20.6404 20.0217L20.0217 20.6404C19.9533 20.7087 19.8425 20.7087 19.7742 20.6404L16 16.8662L12.2258 20.6404Z" fill="#070A26"/>
</svg>
